<?xml version="1.0" encoding="UTF-8" standalone="no"?>
<!-- Created with Inkscape (http://www.inkscape.org/) -->

<svg
   width="136.20935mm"
   height="136.20935mm"
   viewBox="0 0 136.20935 136.20935"
   version="1.1"
   id="svg5"
   xml:space="preserve"
   inkscape:version="1.2.1 (9c6d41e410, 2022-07-14)"
   sodipodi:docname="favicon.svg"
   inkscape:export-filename="favicon-logo.svg"
   inkscape:export-xdpi="25.817341"
   inkscape:export-ydpi="25.817341"
   xmlns:inkscape="http://www.inkscape.org/namespaces/inkscape"
   xmlns:sodipodi="http://sodipodi.sourceforge.net/DTD/sodipodi-0.dtd"
   xmlns:xlink="http://www.w3.org/1999/xlink"
   xmlns="http://www.w3.org/2000/svg"
   xmlns:svg="http://www.w3.org/2000/svg"><sodipodi:namedview
     id="namedview7"
     pagecolor="#1a1a1a"
     bordercolor="#666666"
     borderopacity="1.0"
     inkscape:showpageshadow="2"
     inkscape:pageopacity="0"
     inkscape:pagecheckerboard="0"
     inkscape:deskcolor="#d1d1d1"
     inkscape:document-units="mm"
     showgrid="false"
     inkscape:zoom="1.829812"
     inkscape:cx="274.07187"
     inkscape:cy="270.51959"
     inkscape:window-width="2560"
     inkscape:window-height="1387"
     inkscape:window-x="2552"
     inkscape:window-y="-8"
     inkscape:window-maximized="1"
     inkscape:current-layer="svg5" /><defs
     id="defs2"><linearGradient
       inkscape:collect="always"
       id="linearGradient6752"><stop
         style="stop-color:#ffd100;stop-opacity:1;"
         offset="0"
         id="stop6748" /><stop
         style="stop-color:#ee9b00;stop-opacity:1;"
         offset="1"
         id="stop6750" /></linearGradient><linearGradient
       inkscape:collect="always"
       xlink:href="#linearGradient6752"
       id="linearGradient6754"
       x1="92.107826"
       y1="18.652908"
       x2="92.107826"
       y2="104.54288"
       gradientUnits="userSpaceOnUse"
       gradientTransform="translate(-28.419187,-5.5730286)" /></defs><rect
     style="fill:#000000;fill-opacity:1;stroke:none;stroke-width:1;stroke-linecap:round;stroke-linejoin:round;stroke-dasharray:none"
     id="rect7656"
     width="136.20935"
     height="136.20935"
     x="0"
     y="0"
     inkscape:label="bg" /><path
     id="path6710"
     style="display:inline;fill:url(#linearGradient6754);fill-opacity:1;fill-rule:evenodd;stroke:none;stroke-width:1;stroke-linecap:round;stroke-linejoin:round;stroke-dasharray:none;stroke-opacity:1"
     d="M 47.860949,5.9286236 38.317862,7.8080954 26.894787,6.0728008 7.5187094,6.9404481 5.7834144,28.195998 l 2.169377,22.267892 -2.169377,10.844816 2.602942,11.133687 -1.735295,21.400244 2.458248,11.423083 -2.602942,11.27838 -0.86713,11.27889 4.048332,0.57826 10.5554276,1.5906 10.98951,-1.5906 10.121863,1.87948 16.483748,-0.43357 28.051515,0.28887 11.85716,-2.02416 c 0,0 19.809627,1.4459 20.532597,1.4459 0.72298,0 10.41073,-1.4459 10.41073,-1.4459 l 1.87999,-31.955679 -1.44642,-11.278381 1.30173,-10.555428 -0.43409,-5.205367 -0.57826,-9.688298 -0.43356,-10.555428 0.14418,-7.229533 -0.14418,-12.435417 1.44591,-23.1355382 -10.98951,1.5906006 -9.97717,-0.5782593 -9.25422,1.1570353 L 79.527753,6.0728008 64.77878,6.9404481 Z M 42.94497,10.266343 c 0,0 9.832448,2.313554 10.555428,2.313554 0.722977,0 9.832475,-1.735295 9.832475,-1.735295 l 10.700122,1.735295 10.266038,-1.445907 20.099027,1.590601 9.39891,-1.012341 11.13369,-0.144694 -1.01234,10.410734 1.73529,8.386568 -1.73529,8.82065 1.30173,9.977169 -1.30173,18.219043 0.86765,11.567769 -0.57826,11.278382 1.30121,12.146029 -0.017,0.36277 -10.53838,-2.24276 -9.39891,2.45825 -10.555427,-1.5906 -10.12134,1.87999 -8.0977,-0.86765 -13.302546,-1.5906 -7.953003,1.15704 -8.386568,-0.1447 -14.170195,0.28887 -8.675956,11.85716 -8.32869,9.46506 -2.79983,-2.51251 4.477246,-4.20543 6.50658,-7.08535 3.470589,-4.33772 8.386568,-9.687788 4.915979,-9.687781 1.445907,-4.482931 4.482414,-12.146028 4.338236,-7.518921 1.011825,9.832475 -1.590084,10.555945 -2.458248,11.278381 6.795968,-14.170711 1.301212,-11.56777 -1.012341,-10.410734 4.48293,11.134204 2.74712,12.579594 1.445906,-9.398909 -3.181201,-10.26604 -3.614766,-7.808309 6.362402,7.085355 14.314886,10.555428 -3.325893,-9.254215 -6.651273,-8.09718 -10.121863,-6.073015 13.15837,-1.445906 -7.085356,-4.482931 c 0,0 -6.072936,2.602891 -8.241874,4.048849 l -7.518921,-7.374227 -9.543603,-3.181201 -9.543087,0.578259 8.09718,6.073014 10.411251,3.904155 -10.411251,-0.578259 -10.121346,3.325895 -6.940662,8.386568 9.254216,-3.181201 9.543087,-1.012342 7.374227,-2.313553 -8.097181,4.048848 -7.518921,6.795968 -4.771801,8.386568 -3.470073,9.977169 7.229533,-9.977169 8.964828,-8.386568 -3.470073,12.146028 7.518921,-7.230049 5.494755,-10.410734 -2.16886,9.68778 -7.808309,16.050183 -3.904154,6.073015 -10.121863,14.748971 -0.319877,0.39894 -11.846822,-0.60771 -1.280542,-12.949601 2.16886,-18.074349 -1.879472,-9.109521 1.879472,-11.278381 -1.734778,-8.820651 2.313037,-11.278381 -2.313037,-9.832475 0.86713,-9.543087 c 2.313532,-0.144594 11.134205,-0.72347 11.134205,-0.72347 l 10.700122,1.30173 z m 33.835143,9.543087 -0.722952,1.012341 4.048852,7.374227 9.68778,6.507096 -1.5906,14.025501 2.89181,2.89233 3.32589,-13.592452 7.808307,5.784143 1.01183,5.205367 2.31355,3.325895 0.86765,-8.242391 5.92832,-2.313554 -1.73478,-2.024165 -5.78414,2.024165 -5.928317,-6.940144 8.097177,-2.89233 7.953,-4.482414 -3.03651,-3.181201 -8.67595,3.759977 -9.109517,2.024166 -7.37423,-6.651274 z m 16.65583,57.124162 c -3.99318,0.0085 -8.00947,0.896564 -11.30577,2.594157 -7.23771,3.727422 -11.98187,11.189091 -13.447239,20.387898 l 16.628439,1.590613 9.10952,-2.458256 10.844817,2.168866 5.78363,-2.168866 4.91649,0.722953 c 0,0 -2.78998,-14.284695 -10.12186,-19.375561 -3.38631,-2.351269 -7.882417,-3.471435 -12.408027,-3.461804 z m -52.515656,28.766208 10.989511,1.73478 7.952486,-0.57826 -8.241874,2.16886 H 41.064981 l -9.832474,-2.31356 z m 65.068373,0.86713 8.67544,0.86765 -11.56725,0.57877 -3.181197,-0.72347 z m -3.61476,4.04885 20.53259,2.02416 -9.97716,1.87999 -11.42308,-0.43356 -11.278897,-1.44643 -11.42307,1.44643 -10.410737,-1.87999 -10.700122,0.57826 10.555428,-1.73478 11.857161,2.02416 z m -50.030537,7.08535 12.146028,1.30121 12.001852,0.1447 -11.423075,1.73529 -11.56777,-0.28938 -10.844816,-1.30122 z m 34.84749,4.62711 11.14557,1.77715 -13.02505,1.69292 -16.628439,-0.72295 -8.871293,-1.18856 17.113172,-0.40204 z"
     inkscape:label="icon" /></svg>
